<svg width="43" height="43" viewBox="0 0 43 43" fill="none" xmlns="http://www.w3.org/2000/svg">
    <g clip-path="url(#clip0)">

        <path d="M21.077 6.37714L19.0933 0.138519C14.6126 0.647508 10.4064 2.55165 7.07196 5.58062L13.4893 8.74693C15.7682 7.31052 18.3839 6.49357 21.077 6.37714Z" fill="white" />
        <path d="M21.7614 11.5793C21.0498 11.5793 20.3401 11.6531 19.6438 11.7994L23.3633 13.6473L22.731 11.6263C22.4111 11.5991 22.0863 11.5793 21.7614 11.5793Z" fill="white" />
        <path d="M31.0601 2.20157L28.764 8.03204C30.4213 8.86498 31.916 9.9867 33.1777 11.3443C33.6489 11.8527 33.8984 12.5271 33.8712 13.219C33.844 13.9109 33.5423 14.5637 33.0327 15.0338C32.523 15.5039 31.847 15.7527 31.1534 15.7256C30.4598 15.6984 29.8055 15.3975 29.3343 14.8891C28.6111 14.1039 27.7694 13.4362 26.8397 12.9101L24.7965 18.1444L36.3492 16.5291L31.0601 2.20157Z" fill="white" />
        <path d="M13.4893 8.74692L7.07942 5.56824C4.0601 8.3 1.87836 11.8292 0.786933 15.7471C-0.304496 19.6649 -0.260949 23.811 0.912528 27.7052L6.22642 21.3553C6.31256 18.8217 7.0196 16.3478 8.28571 14.1498C9.55181 11.9519 11.3384 10.0968 13.4893 8.74692Z" fill="white" />
        <path d="M6.21149 21.8723C6.21149 21.6991 6.21149 21.526 6.22637 21.3553L0.912476 27.7052C1.96602 31.1845 3.88501 34.3412 6.49073 36.8814C9.09646 39.4216 12.3042 41.2626 15.8152 42.2332L12.7255 34.4831C10.7118 33.0502 9.07012 31.1584 7.93711 28.9649C6.80409 26.7715 6.21248 24.3398 6.21149 21.8723Z" fill="white" />
        <path d="M23.3683 13.6473L19.6488 11.7994C18.2712 12.0878 16.9679 12.6561 15.8202 13.4692V30.2754C17.5589 31.5068 19.639 32.1673 21.7714 32.1653C22.543 32.1657 23.3124 32.0803 24.065 31.9105L36.3418 16.539L24.7965 18.1444L23.3683 13.6473Z" fill="white" />
        <path d="M15.8152 36.2023V42.2282L19.7826 37.2536C18.4189 37.0821 17.0845 36.7285 15.8152 36.2023Z" fill="white" />
        <path d="M12.7256 34.4831L15.8152 42.2282V36.2023C14.7231 35.7484 13.6865 35.1716 12.7256 34.4831Z" fill="white" />
        <path d="M11.446 21.8723C11.4451 23.5209 11.8416 25.1456 12.602 26.6093C13.3624 28.0731 14.4644 29.333 15.8152 30.2828V13.4692C14.4655 14.4183 13.3641 15.677 12.6037 17.1394C11.8434 18.6017 11.4463 20.2249 11.446 21.8723Z" fill="white" />
        <path d="M39.8653 10.1644L36.3418 16.5291L24.065 31.9105C26.0893 31.4458 27.9268 30.3848 29.3392 28.8654C29.8137 28.3731 30.4628 28.086 31.1471 28.0657C31.8314 28.0454 32.4964 28.2935 32.9994 28.7568C33.5025 29.2201 33.8034 29.8616 33.8376 30.5437C33.8719 31.2258 33.6368 31.8941 33.1827 32.4052C31.7245 33.9744 29.9577 35.2269 27.9926 36.0845C26.0275 36.9421 23.9063 37.3864 21.7614 37.3897C21.098 37.3891 20.4354 37.3453 19.7777 37.2586L15.8102 42.2332C19.9891 43.3838 24.4187 43.2506 28.5206 41.8512C32.6224 40.4517 36.206 37.8509 38.8034 34.3884C41.4008 30.9259 42.8913 26.7626 43.0803 22.442C43.2693 18.1214 42.148 13.8444 39.8629 10.1693L39.8653 10.1644Z" fill="white" />
        <path d="M22.731 11.6263L23.3682 13.6448L24.7965 18.1444L26.8521 12.92C25.5846 12.2053 24.1804 11.7645 22.731 11.6263Z" fill="white" />
        <path d="M21.7614 6.35982C24.1946 6.36309 26.593 6.93585 28.764 8.03203L31.0601 2.20156C28.1017 0.749207 24.8479 -0.00411159 21.5507 -1.38897e-05C20.7296 0.000840401 19.9092 0.0470867 19.0933 0.138512L21.077 6.37714C21.3002 6.36724 21.5308 6.35982 21.7614 6.35982Z" fill="white" />
        <path d="M39.8654 10.1643C37.7333 6.74189 34.683 3.98347 31.0601 2.20157L36.3418 16.5291L39.8654 10.1643Z" fill="white" />
    </g>
    <defs>
        <clipPath id="clip0">
            <rect width="131" height="43" fill="white" />
        </clipPath>
    </defs>
</svg>
