<svg width="131" height="43" viewBox="0 0 131 43" fill="none" xmlns="http://www.w3.org/2000/svg">
<g clip-path="url(#clip0)">
<path d="M50.0443 28.942C50.0443 23.8957 54.473 19.6583 59.7149 19.6583C61.056 19.6624 62.3821 19.9394 63.6121 20.4724C64.8422 21.0053 65.9503 21.783 66.8687 22.7578L63.5931 25.6595C63.1329 25.0682 62.5455 24.5875 61.8744 24.2527C61.2032 23.9179 60.4653 23.7376 59.7149 23.7251C56.9625 23.7251 54.6292 26.1295 54.6292 28.9544C54.6292 31.7794 56.9625 34.2085 59.7149 34.2085C60.4692 34.1963 61.2112 34.0163 61.8869 33.6817C62.5625 33.347 63.1548 32.8661 63.6204 32.2741L66.8687 35.151C65.9537 36.1308 64.8464 36.9124 63.6157 37.4473C62.3851 37.9822 61.0573 38.259 59.7149 38.2604C54.473 38.248 50.0443 33.9884 50.0443 28.942Z" fill="white"/>
<path d="M78.4537 33.5159L81.0846 36.1578C79.8795 37.3946 77.5461 38.2481 75.5277 38.2481C71.3346 38.2481 68.2425 35.2945 68.2425 31.1362C68.2425 27.0324 71.2305 24.1035 75.3169 24.1035C79.6167 24.1035 82.1335 27.2426 82.1335 32.3928H72.4629C72.8819 33.7509 73.9507 34.6662 75.3988 34.6662C76.5185 34.6399 77.5959 34.2342 78.4537 33.5159ZM72.5025 29.699H78.0074C77.6404 28.4622 76.7229 27.6607 75.3864 27.6607C74.7519 27.6549 74.1318 27.8487 73.614 28.2146C73.0963 28.5806 72.7074 29.1 72.5025 29.699Z" fill="white"/>
<path d="M93.3118 24.1035V27.7893C90.5618 27.7893 88.8831 29.3601 88.8831 31.8437L88.8583 31.7917V37.9364H84.4272V24.4177H88.8583V26.9285C89.7485 25.1771 91.3479 24.1035 93.3118 24.1035Z" fill="white"/>
<path d="M103.768 36.9667C102.854 37.7679 101.685 38.2216 100.468 38.248C97.9239 38.248 96.1435 36.4447 96.1435 33.9092V27.9526H94.3607V24.4177H96.1435V20.7072H100.389V24.4177H103.193V27.9526H100.389V33.0978C100.389 33.9611 100.912 34.5622 101.629 34.5622C102.088 34.5731 102.536 34.4146 102.886 34.117L103.768 36.9667Z" fill="white"/>
<path d="M105.264 31.1683C105.264 27.3242 108.696 24.1085 112.784 24.1085C116.873 24.1085 120.308 27.3242 120.308 31.1683C120.308 35.0124 116.873 38.253 112.784 38.253C108.696 38.253 105.264 35.0075 105.264 31.1683ZM116.112 31.1683C116.112 30.2879 115.762 29.4435 115.137 28.821C114.513 28.1984 113.667 27.8487 112.784 27.8487C111.902 27.8487 111.055 28.1984 110.431 28.821C109.807 29.4435 109.457 30.2879 109.457 31.1683C109.457 32.9989 110.977 34.5672 112.784 34.5672C114.592 34.5672 116.112 32.9939 116.112 31.1683Z" fill="white"/>
<path d="M131 24.3138C131.026 25.1914 130.789 26.0568 130.319 26.7991C129.849 27.5413 129.168 28.1267 128.362 28.4801C127.556 28.8335 126.663 28.9389 125.797 28.7827C124.931 28.6265 124.131 28.2158 123.501 27.6034C122.87 26.991 122.437 26.2046 122.258 25.3451C122.078 24.4857 122.16 23.5922 122.492 22.7794C122.825 21.9665 123.393 21.2711 124.124 20.7825C124.855 20.2939 125.716 20.0342 126.596 20.0368C127.168 20.0257 127.736 20.1278 128.268 20.3374C128.799 20.5469 129.284 20.8597 129.694 21.2575C130.103 21.6554 130.43 22.1304 130.654 22.655C130.878 23.1797 130.996 23.7435 131 24.3138ZM123.268 24.3138C123.268 26.221 124.682 27.7374 126.623 27.7374C128.51 27.7374 129.899 26.221 129.899 24.3385C129.899 22.4561 128.51 20.8754 126.596 20.8754C124.682 20.8754 123.268 22.4313 123.268 24.3138ZM125.914 26.5624H124.922V22.2631C125.467 22.168 126.019 22.1241 126.571 22.132C127.385 22.132 127.752 22.2631 128.059 22.4462C128.195 22.562 128.304 22.7068 128.376 22.8699C128.449 23.033 128.484 23.2103 128.478 23.3886C128.478 23.8586 128.111 24.2247 127.588 24.3781V24.4325C128.007 24.5884 128.243 24.9025 128.374 25.4764C128.505 26.132 128.582 26.3917 128.689 26.55H127.613C127.481 26.3917 127.405 26.0009 127.273 25.5036C127.194 25.0336 126.931 24.8234 126.38 24.8234H125.909L125.914 26.5624ZM125.942 24.1307H126.413C126.963 24.1307 127.405 23.9477 127.405 23.5024C127.405 23.1116 127.114 22.8494 126.487 22.8494C126.302 22.8448 126.117 22.8622 125.937 22.9013L125.942 24.1307Z" fill="white"/>
<path d="M59.0405 6.52804C59.0774 6.54685 59.109 6.5746 59.1324 6.60874C59.1558 6.64287 59.1702 6.68232 59.1744 6.72346C59.1735 6.77274 59.155 6.82008 59.1223 6.85704L58.9512 7.07225C58.9257 7.10195 58.8974 7.12928 58.8669 7.15388C58.8371 7.17164 58.8021 7.17863 58.7677 7.17367C58.6763 7.16034 58.5904 7.12178 58.5198 7.06236C58.1636 6.80222 57.7731 6.59245 57.3593 6.43899C56.951 6.29021 56.5194 6.21483 56.0847 6.21636C55.7092 6.21428 55.3352 6.26508 54.9739 6.36725C54.2828 6.56288 53.6547 6.93457 53.1513 7.44578C52.9056 7.69668 52.6916 7.97664 52.514 8.27941C52.3361 8.58298 52.1977 8.90802 52.1024 9.24662C52.0054 9.58699 51.9562 9.93913 51.9561 10.293C51.9557 10.6533 52.0083 11.0117 52.1123 11.3567C52.2114 11.7038 52.3556 12.0364 52.5413 12.3461C52.912 12.9557 53.4218 13.4694 54.0291 13.8452C54.3274 14.0297 54.6483 14.1752 54.9838 14.2781C55.3196 14.381 55.669 14.4327 56.0203 14.4315C56.244 14.4312 56.4673 14.4105 56.6873 14.3696C56.9183 14.3269 57.1456 14.2657 57.3667 14.1866C57.5936 14.1069 57.8134 14.0085 58.0238 13.8922C58.2322 13.782 58.4284 13.6501 58.609 13.4989C58.6545 13.4635 58.7101 13.4436 58.7677 13.442C58.8171 13.4455 58.8647 13.4619 58.9057 13.4898C58.9466 13.5176 58.9795 13.5557 59.0008 13.6003L59.0975 13.7512C59.1247 13.7996 59.1392 13.854 59.1397 13.9095C59.1393 13.9556 59.1275 14.0009 59.1055 14.0415C59.0834 14.082 59.0517 14.1165 59.0132 14.142C58.6017 14.4611 58.1411 14.7117 57.6494 14.8841C56.9907 15.112 56.2903 15.1948 55.5964 15.1269C54.9026 15.059 54.2317 14.842 53.6299 14.4908C53.2748 14.2846 52.9466 14.0354 52.6529 13.7487C52.3628 13.4526 52.1127 13.12 51.909 12.7592C51.6959 12.3955 51.5293 12.0066 51.4131 11.6016C51.2401 10.9823 51.1937 10.3347 51.2768 9.69727C51.3598 9.05981 51.5706 8.44554 51.8966 7.89104C52.1048 7.53945 52.3563 7.21533 52.6455 6.9263C52.9383 6.63754 53.2675 6.38807 53.6249 6.1842C53.9891 5.97066 54.379 5.8044 54.7854 5.68946C55.2054 5.574 55.6392 5.51575 56.0748 5.5163C56.6135 5.51529 57.1485 5.60563 57.6568 5.78346C58.157 5.95172 58.6249 6.2035 59.0405 6.52804Z" fill="white"/>
<path d="M60.5035 11.0203C60.5025 10.6491 60.5525 10.2795 60.6523 9.92194C60.8463 9.23118 61.215 8.60176 61.723 8.09408C62.2311 7.58639 62.8614 7.2175 63.5535 7.02278C64.2707 6.82488 65.0283 6.82488 65.7455 7.02278C66.0927 7.12025 66.426 7.26157 66.7373 7.44331C67.0444 7.62432 67.3276 7.84287 67.5804 8.09389C67.8341 8.34398 68.0541 8.62586 68.235 8.93247C68.5149 9.40906 68.6962 9.93677 68.7682 10.4844C68.8401 11.0321 68.8014 11.5886 68.6541 12.121C68.4633 12.8139 68.093 13.4444 67.5804 13.9491C67.3276 14.2001 67.0444 14.4187 66.7373 14.5997C66.426 14.7807 66.0927 14.9212 65.7455 15.0177C65.0283 15.2156 64.2707 15.2156 63.5535 15.0177C62.8608 14.8245 62.2297 14.4564 61.7211 13.949C61.2125 13.4416 60.8435 12.8121 60.6498 12.121C60.5507 11.7625 60.5014 11.3921 60.5035 11.0203ZM61.2623 11.0203C61.2611 11.3213 61.302 11.621 61.3838 11.9108C61.5367 12.4777 61.831 12.9968 62.2392 13.4197C62.4412 13.6314 62.6705 13.8152 62.9211 13.9664C63.1734 14.1184 63.4443 14.2373 63.727 14.3201C64.0179 14.4043 64.3194 14.4459 64.6222 14.4438C65.0815 14.4483 65.5366 14.3573 65.9587 14.1767C66.3663 14.0006 66.7366 13.7487 67.0498 13.4346C67.3653 13.1236 67.6179 12.7549 67.7937 12.3486C67.9765 11.9288 68.0694 11.4755 68.0664 11.0178C68.0678 10.5642 67.9776 10.1149 67.8011 9.69683C67.6293 9.2888 67.3839 8.91569 67.077 8.59604C66.7675 8.28436 66.4026 8.03273 66.0009 7.85394C65.5877 7.66612 65.1383 7.57072 64.6842 7.57441C64.2278 7.57237 63.7761 7.66503 63.3576 7.84652C62.9523 8.02279 62.5845 8.27468 62.274 8.58862C61.9648 8.90651 61.7176 9.27894 61.5449 9.68694C61.3577 10.1058 61.2605 10.5592 61.2598 11.0178L61.2623 11.0203Z" fill="white"/>
<path d="M72.3264 14.6961C72.3264 14.7357 72.3264 14.7679 72.3264 14.7926V14.9237C72.3273 14.9415 72.3236 14.9591 72.3158 14.9751C72.308 14.9911 72.2963 15.0049 72.2818 15.0152C72.2508 15.0411 72.2144 15.0597 72.1752 15.0696C72.1332 15.082 72.0899 15.0895 72.0462 15.0919H71.9421C71.7227 15.0934 71.5042 15.0651 71.2924 15.0078C71.0961 14.954 70.913 14.8605 70.7543 14.7332C70.5948 14.5993 70.4691 14.4298 70.3873 14.2385C70.2909 14.0033 70.2453 13.7504 70.2535 13.4964V7.68323H69.1599C69.1035 7.68688 69.0475 7.67116 69.0012 7.6387C68.9824 7.61868 68.9682 7.5948 68.9597 7.56873C68.9511 7.54267 68.9484 7.51505 68.9516 7.48781V7.19097C68.948 7.16447 68.9507 7.13751 68.9593 7.11218C68.9679 7.08686 68.9822 7.06387 69.0012 7.04502C69.0491 7.0168 69.1045 7.00386 69.1599 7.00791H70.2535V5.02897C70.2531 5.00935 70.2574 4.98992 70.266 4.97229C70.2746 4.95465 70.2873 4.93932 70.303 4.92755C70.3209 4.91486 70.34 4.90409 70.3601 4.89539L70.4047 4.87313L70.5237 4.82613L70.6651 4.77913C70.7002 4.76666 70.7369 4.75916 70.7742 4.75686C70.8051 4.75285 70.8364 4.75664 70.8655 4.76788C70.8945 4.77911 70.9202 4.79744 70.9403 4.82118C70.9693 4.87235 70.9831 4.9307 70.98 4.98939V7.01533H72.4058C72.4337 7.01082 72.4623 7.0129 72.4893 7.02141C72.5163 7.02993 72.5409 7.04464 72.5612 7.06437C72.5815 7.0841 72.5968 7.10829 72.606 7.135C72.6152 7.16171 72.6179 7.1902 72.6141 7.21818V7.46554C72.6141 7.61149 72.5446 7.6857 72.4058 7.6857H70.9899V13.014C70.9899 13.1971 70.9899 13.3727 71.0122 13.536C71.0229 13.6838 71.0538 13.8294 71.104 13.9689C71.1438 14.083 71.212 14.1851 71.3023 14.2657C71.4025 14.3436 71.5277 14.3823 71.6545 14.3745H71.8008C71.8988 14.3722 71.9968 14.3797 72.0933 14.3968C72.1502 14.407 72.2042 14.4289 72.252 14.4611C72.2864 14.4874 72.3102 14.5252 72.319 14.5675C72.3272 14.6165 72.3314 14.6662 72.3314 14.7159L72.3264 14.6961Z" fill="white"/>
<path d="M73.8614 11.2849C73.8764 11.38 73.8863 11.4758 73.8911 11.5719C73.896 11.6857 73.9143 11.7987 73.9457 11.9083C74.0449 12.2735 74.2014 12.6208 74.4094 12.9373C74.6053 13.2421 74.8498 13.5129 75.1334 13.7388C75.4187 13.9635 75.7386 14.1406 76.0806 14.2632C76.4345 14.3902 76.808 14.4539 77.1841 14.4512C77.3934 14.4519 77.6024 14.4354 77.809 14.4018C77.9931 14.3701 78.174 14.3221 78.3495 14.2583C78.5133 14.1993 78.6718 14.1265 78.8231 14.0406C78.9717 13.9584 79.1142 13.8658 79.2496 13.7635C79.2958 13.7366 79.3398 13.706 79.3811 13.672L79.51 13.5706L79.6265 13.489C79.6559 13.4687 79.6901 13.4568 79.7257 13.4543C79.758 13.4543 79.7976 13.4815 79.8398 13.536C79.9092 13.6374 79.9613 13.7165 79.9935 13.7833C80.0195 13.8208 80.0357 13.8642 80.0406 13.9095C80.04 13.919 80.0375 13.9282 80.0332 13.9367C80.029 13.9452 80.0231 13.9528 80.0158 13.959C80.0343 13.9756 80.0458 13.9986 80.0481 14.0233C79.9945 14.0874 79.9374 14.1486 79.877 14.2063C79.7993 14.2752 79.7164 14.3381 79.629 14.3943C79.288 14.6333 78.916 14.8247 78.5231 14.9633C78.1057 15.1052 77.6672 15.1755 77.2262 15.1711C76.677 15.1717 76.1334 15.0598 75.6293 14.8421C75.1358 14.6333 74.6871 14.3318 74.3077 13.954C73.9289 13.575 73.6244 13.1287 73.4101 12.638C73.1878 12.1329 73.0746 11.5867 73.0778 11.0351C73.0742 10.4919 73.1781 9.95331 73.3836 9.45028C73.5892 8.94725 73.8922 8.48966 74.2755 8.10376C74.5264 7.85164 74.8089 7.63296 75.1161 7.45318C76.081 6.89766 77.2258 6.74137 78.3049 7.01781C78.6431 7.10498 78.9689 7.23465 79.2744 7.40371C79.8917 7.74281 80.4057 8.24193 80.7622 8.84834C80.9488 9.16637 81.093 9.50731 81.1912 9.86254C81.299 10.2496 81.359 10.6483 81.3697 11.0499C81.3686 11.0548 81.3686 11.0599 81.3697 11.0648C81.3709 11.0721 81.3709 11.0796 81.3697 11.087C81.3697 11.2305 81.3028 11.3022 81.1689 11.3022L73.8614 11.2849ZM76.341 7.72034C76.0223 7.80416 75.7192 7.93863 75.4434 8.1186C75.1666 8.29744 74.9163 8.51391 74.6995 8.76176C74.4841 9.01257 74.3024 9.29031 74.1589 9.58797C74.0145 9.88977 73.9135 10.2104 73.8589 10.5403H80.6258C80.5779 10.1295 80.4498 9.73205 80.2489 9.37028C79.8545 8.6586 79.2203 8.10916 78.4586 7.81928C78.0732 7.66864 77.6626 7.59225 77.2486 7.59418C77.1094 7.59393 76.9703 7.60136 76.832 7.61644C76.6658 7.63783 76.5016 7.67257 76.341 7.72034Z" fill="white"/>
<path d="M24.7891 18.1444L26.8447 12.92L24.7891 18.1444Z" fill="white"/>
<path d="M28.7689 8.03204L31.0601 2.20157L28.7689 8.03204Z" fill="white"/>
<path d="M36.3418 16.5291L31.0601 2.20157L36.3418 16.5291Z" fill="white"/>
<path d="M21.077 6.37714L19.0933 0.138519C14.6126 0.647508 10.4064 2.55165 7.07196 5.58062L13.4893 8.74693C15.7682 7.31052 18.3839 6.49357 21.077 6.37714Z" fill="white"/>
<path d="M21.7614 11.5793C21.0498 11.5793 20.3401 11.6531 19.6438 11.7994L23.3633 13.6473L22.731 11.6263C22.4111 11.5991 22.0863 11.5793 21.7614 11.5793Z" fill="white"/>
<path d="M31.0601 2.20157L28.764 8.03204C30.4213 8.86498 31.916 9.9867 33.1777 11.3443C33.6489 11.8527 33.8984 12.5271 33.8712 13.219C33.844 13.9109 33.5423 14.5637 33.0327 15.0338C32.523 15.5039 31.847 15.7527 31.1534 15.7256C30.4598 15.6984 29.8055 15.3975 29.3343 14.8891C28.6111 14.1039 27.7694 13.4362 26.8397 12.9101L24.7965 18.1444L36.3492 16.5291L31.0601 2.20157Z" fill="white"/>
<path d="M13.4893 8.74692L7.07942 5.56824C4.0601 8.3 1.87836 11.8292 0.786933 15.7471C-0.304496 19.6649 -0.260949 23.811 0.912528 27.7052L6.22642 21.3553C6.31256 18.8217 7.0196 16.3478 8.28571 14.1498C9.55181 11.9519 11.3384 10.0968 13.4893 8.74692Z" fill="white"/>
<path d="M6.21149 21.8723C6.21149 21.6991 6.21149 21.526 6.22637 21.3553L0.912476 27.7052C1.96602 31.1845 3.88501 34.3412 6.49073 36.8814C9.09646 39.4216 12.3042 41.2626 15.8152 42.2332L12.7255 34.4831C10.7118 33.0502 9.07012 31.1584 7.93711 28.9649C6.80409 26.7715 6.21248 24.3398 6.21149 21.8723Z" fill="white"/>
<path d="M23.3683 13.6473L19.6488 11.7994C18.2712 12.0878 16.9679 12.6561 15.8202 13.4692V30.2754C17.5589 31.5068 19.639 32.1673 21.7714 32.1653C22.543 32.1657 23.3124 32.0803 24.065 31.9105L36.3418 16.539L24.7965 18.1444L23.3683 13.6473Z" fill="white"/>
<path d="M15.8152 36.2023V42.2282L19.7826 37.2536C18.4189 37.0821 17.0845 36.7285 15.8152 36.2023Z" fill="white"/>
<path d="M12.7256 34.4831L15.8152 42.2282V36.2023C14.7231 35.7484 13.6865 35.1716 12.7256 34.4831Z" fill="white"/>
<path d="M11.446 21.8723C11.4451 23.5209 11.8416 25.1456 12.602 26.6093C13.3624 28.0731 14.4644 29.333 15.8152 30.2828V13.4692C14.4655 14.4183 13.3641 15.677 12.6037 17.1394C11.8434 18.6017 11.4463 20.2249 11.446 21.8723Z" fill="white"/>
<path d="M39.8653 10.1644L36.3418 16.5291L24.065 31.9105C26.0893 31.4458 27.9268 30.3848 29.3392 28.8654C29.8137 28.3731 30.4628 28.086 31.1471 28.0657C31.8314 28.0454 32.4964 28.2935 32.9994 28.7568C33.5025 29.2201 33.8034 29.8616 33.8376 30.5437C33.8719 31.2258 33.6368 31.8941 33.1827 32.4052C31.7245 33.9744 29.9577 35.2269 27.9926 36.0845C26.0275 36.9421 23.9063 37.3864 21.7614 37.3897C21.098 37.3891 20.4354 37.3453 19.7777 37.2586L15.8102 42.2332C19.9891 43.3838 24.4187 43.2506 28.5206 41.8512C32.6224 40.4517 36.206 37.8509 38.8034 34.3884C41.4008 30.9259 42.8913 26.7626 43.0803 22.442C43.2693 18.1214 42.148 13.8444 39.8629 10.1693L39.8653 10.1644Z" fill="white"/>
<path d="M22.731 11.6263L23.3682 13.6448L24.7965 18.1444L26.8521 12.92C25.5846 12.2053 24.1804 11.7645 22.731 11.6263Z" fill="white"/>
<path d="M21.7614 6.35982C24.1946 6.36309 26.593 6.93585 28.764 8.03203L31.0601 2.20156C28.1017 0.749207 24.8479 -0.00411159 21.5507 -1.38897e-05C20.7296 0.000840401 19.9092 0.0470867 19.0933 0.138512L21.077 6.37714C21.3002 6.36724 21.5308 6.35982 21.7614 6.35982Z" fill="white"/>
<path d="M39.8654 10.1643C37.7333 6.74189 34.683 3.98347 31.0601 2.20157L36.3418 16.5291L39.8654 10.1643Z" fill="white"/>
</g>
<defs>
<clipPath id="clip0">
<rect width="131" height="43" fill="white"/>
</clipPath>
</defs>
</svg>
